<?xml version="1.0" encoding="utf-8"?>
<!-- Generator: Adobe Illustrator 28.2.0, SVG Export Plug-In . SVG Version: 6.00 Build 0)  -->
<svg version="1.1" id="Layer_1" xmlns="http://www.w3.org/2000/svg" xmlns:xlink="http://www.w3.org/1999/xlink" x="0px" y="0px"
	 viewBox="0 0 173.4 34.8" style="enable-background:new 0 0 173.4 34.8;" xml:space="preserve">
<style type="text/css">
	.st0{fill:#FFFFFF;}
	.st1{fill:#FCB514;}
	.st2{fill:#053B43;}
</style>
<g>
	<g>
		<path class="st0" d="M68.3,8.5v20h-4v-13l-5.4,13h-3l-5.4-13v13h-4v-20H51l6.4,14.9l6.4-14.9H68.3z"/>
		<path class="st0" d="M72.1,16.3c0.6-1.2,1.5-2.2,2.6-2.9s2.3-1,3.7-1c1.2,0,2.2,0.2,3.1,0.7s1.6,1.1,2.1,1.8v-2.3h4v15.9h-4v-2.3
			c-0.5,0.7-1.2,1.4-2.1,1.8c-0.9,0.5-2,0.7-3.1,0.7c-1.3,0-2.6-0.3-3.7-1s-2-1.7-2.6-2.9c-0.6-1.3-1-2.7-1-4.3
			C71.2,18.9,71.5,17.5,72.1,16.3z M83.1,18.1c-0.4-0.7-0.9-1.2-1.5-1.6s-1.3-0.6-2.1-0.6c-0.7,0-1.4,0.2-2.1,0.5s-1.1,0.9-1.5,1.6
			s-0.6,1.5-0.6,2.5s0.2,1.8,0.6,2.5s0.9,1.3,1.5,1.6c0.6,0.4,1.3,0.6,2,0.6s1.4-0.2,2.1-0.6c0.6-0.4,1.2-0.9,1.5-1.6
			c0.4-0.7,0.6-1.5,0.6-2.5C83.7,19.6,83.5,18.8,83.1,18.1z"/>
		<path class="st0" d="M97.7,13.1c0.8-0.5,1.8-0.5,2.9-0.5v4h-1.1c-1.3,0-2.2,0.3-2.9,0.9s-1,1.6-1,3.1v7.9h-4V12.6h4v2.5
			C96.2,14.3,96.8,13.6,97.7,13.1z"/>
		<path class="st0" d="M107.9,16.6v7c0,0.5,0.1,0.9,0.4,1.2c0.3,0.2,0.7,0.4,1.3,0.4h1.9v3.4H109c-3.4,0-5.1-1.6-5.1-4.9v-7H102v-4
			h1.9v-4h4v3.9h3.6v4H107.9z"/>
		<path class="st0" d="M132.3,8.5l-7.3,20h-4.9l-7.3-20h4.3l5.5,15.9L128,8.5H132.3z"/>
		<path class="st0" d="M135,10.1c-0.5-0.4-0.7-1-0.7-1.7s0.2-1.2,0.7-1.7c0.5-0.4,1.1-0.7,1.8-0.7s1.3,0.2,1.8,0.7
			c0.5,0.4,0.7,1,0.7,1.7s-0.2,1.2-0.7,1.7c-0.5,0.4-1.1,0.7-1.8,0.7C136,10.8,135.4,10.5,135,10.1z M138.7,12.6v15.9h-4V12.6H138.7
			z"/>
		<path class="st0" d="M146.7,7.3v21.2h-4V7.3H146.7z"/>
		<path class="st0" d="M154.6,7.3v21.2h-4V7.3H154.6z"/>
		<path class="st0" d="M173.2,21.8h-11.6c0.1,1.1,0.5,2,1.2,2.7c0.7,0.6,1.6,1,2.6,1c1.5,0,2.5-0.6,3.2-1.9h4.3
			c-0.5,1.5-1.3,2.8-2.6,3.8s-2.9,1.5-4.8,1.5c-1.5,0-2.9-0.3-4.1-1c-1.2-0.7-2.2-1.6-2.8-2.9c-0.7-1.2-1-2.7-1-4.3
			c0-1.6,0.3-3.1,1-4.3s1.6-2.2,2.8-2.9s2.6-1,4.2-1c1.5,0,2.9,0.3,4.1,1c1.2,0.6,2.1,1.6,2.8,2.8c0.7,1.2,1,2.6,1,4.1
			C173.4,20.8,173.3,21.3,173.2,21.8z M169.2,19.1c0-1-0.4-1.9-1.1-2.5c-0.7-0.6-1.6-0.9-2.7-0.9c-1,0-1.8,0.3-2.5,0.9
			s-1.1,1.4-1.2,2.5H169.2z"/>
	</g>
	<g>
		<path class="st0" d="M30.3,34.8H4.6c-2.5,0-4.6-2-4.6-4.6V4.6C0,2,2,0,4.6,0h25.7c2.5,0,4.6,2,4.6,4.6v25.7
			C34.8,32.8,32.8,34.8,30.3,34.8z"/>
		<g>
			<path class="st1" d="M29,7.6v3.3c0,0.4-0.2,0.7-0.6,0.9l-10.5,5.5c-0.3,0.2-0.7,0.2-1,0l-5.5-2.9l-5.1-2.6
				c-0.3-0.2-0.6-0.5-0.6-0.9V7.6c0-0.8,0.8-1.3,1.5-0.9l4.1,2.1l5.5,2.9c0.3,0.2,0.7,0.2,1,0l9.6-5C28.2,6.3,29,6.8,29,7.6z"/>
			<path class="st2" d="M29,16.7V20c0,0.4-0.2,0.7-0.6,0.9l-10.5,5.5c-0.3,0.2-0.7,0.2-1,0l-5.5-2.9l-5-2.5c-0.4-0.2-0.6-0.6-0.6-1
				v-3.3c0-0.8,0.8-1.3,1.5-0.9l4.1,2.1l5.5,2.9c0.3,0.2,0.7,0.2,1,0l9.6-5C28.2,15.4,29,15.9,29,16.7z"/>
			<path class="st2" d="M11.5,28.3H6.3c-0.3,0-0.5-0.2-0.5-0.5v-2.4c0-0.4,0.4-0.6,0.8-0.5l2.8,1.5l2.3,1.2
				C12,27.7,11.9,28.3,11.5,28.3z"/>
			<path class="st2" d="M29,25.3v2.4c0,0.3-0.2,0.5-0.5,0.5h-5.1c-0.4,0-0.6-0.6-0.2-0.8l5.1-2.6C28.6,24.7,29,24.9,29,25.3z"/>
		</g>
	</g>
</g>
</svg>
