<?xml version="1.0" encoding="utf-8"?>
<!-- Generator: Adobe Illustrator 27.0.0, SVG Export Plug-In . SVG Version: 6.00 Build 0)  -->
<svg version="1.1" id="Layer_1" xmlns="http://www.w3.org/2000/svg" xmlns:xlink="http://www.w3.org/1999/xlink" x="0px" y="0px"
	 viewBox="0 0 700 700" style="enable-background:new 0 0 700 700;" xml:space="preserve">
<style type="text/css">
	.st0{fill:#013B43;}
	.st1{fill:#FCB514;}
	.st2{fill:#FFFFFF;}
</style>
<g>
	<path class="st0" d="M105.5,0.6h489.1c57.9,0,104.9,46.9,104.9,104.9v489.1c0,57.9-46.9,104.9-104.9,104.9H105.5
		c-57.9,0-104.9-46.9-104.9-104.9V105.5C0.6,47.6,47.6,0.6,105.5,0.6z"/>
	<path class="st1" d="M350.7,364.1c-2.2,0-4.4-0.5-6.4-1.6l-213-110.2c-4.7-2.4-7.6-7.2-7.6-12.4l0-66.8c0-8.7,7.3-14,14-14
		c2.2,0,4.4,0.5,6.4,1.6L338,261c3.9,2,8.3,3.1,12.7,3.1c4.4,0,8.8-1.1,12.8-3.1l192.3-100.1c2.1-1.1,4.2-1.6,6.4-1.6
		c6.7,0,14,5.4,14,14v66.6c0,5.2-2.9,10-7.5,12.4L357.2,362.5C355.2,363.5,353,364.1,350.7,364.1L350.7,364.1z"/>
	<path class="st2" d="M350.7,526.9c-2.2,0-4.5-0.5-6.4-1.6l-213-110.2c-4.7-2.4-7.6-7.2-7.6-12.4l0-66.8c0-8.7,7.3-14,14-14
		c2.2,0,4.4,0.5,6.4,1.6L338,423.8c3.9,2,8.3,3.1,12.7,3.1c4.4,0,8.8-1.1,12.8-3.1l192.3-100.1c2.1-1.1,4.2-1.6,6.4-1.6
		c6.7,0,14,5.4,14,14v66.6c0,5.2-2.9,10-7.5,12.4L357.2,525.3C355.2,526.3,353,526.8,350.7,526.9L350.7,526.9z"/>
	<g>
		<path class="st2" d="M127.4,540.9c-2,0-3.6-1.6-3.6-3.6v-49c0-2.2,1.9-3.6,3.6-3.6c0.6,0,1.1,0.1,1.6,0.4L231.3,538
			c0.3,0.1,1.1,0.5,0.8,1.7c-0.3,1.2-1.1,1.2-1.5,1.2L127.4,540.9L127.4,540.9z"/>
		<path class="st2" d="M470.1,540.9c-0.3,0-1.2,0-1.5-1.2c-0.3-1.2,0.5-1.5,0.8-1.7L571,485.1c0.5-0.3,1.1-0.4,1.7-0.4
			c1.7,0,3.6,1.4,3.6,3.6v49c0,2-1.6,3.6-3.6,3.6H470.1L470.1,540.9z"/>
	</g>
</g>
</svg>
