<?xml version="1.0" encoding="utf-8"?>
<!-- Generator: Adobe Illustrator 27.0.0, SVG Export Plug-In . SVG Version: 6.00 Build 0)  -->
<svg version="1.1" id="Layer_1" xmlns="http://www.w3.org/2000/svg" xmlns:xlink="http://www.w3.org/1999/xlink" x="0px" y="0px"
	 viewBox="0 0 1080 1080" style="enable-background:new 0 0 1080 1080;" xml:space="preserve">
<style type="text/css">
	.st0{fill:#013B43;}
	.st1{fill:#FCB514;}
	.st2{fill:#FFFFFF;}
</style>
<g>
	<path class="st0" d="M162.3,0.4h755.4c89.4,0,162,72.5,162,162v755.4c0,89.4-72.5,162-162,162H162.3c-89.4,0-162-72.5-162-162
		V162.3C0.4,72.9,72.9,0.4,162.3,0.4z"/>
	<path class="st1" d="M541.1,561.7c-3.4,0-6.9-0.8-9.9-2.4L202.3,389.2c-7.2-3.7-11.7-11.1-11.7-19.2l0-103.1
		c0-13.4,11.2-21.6,21.6-21.6c3.4,0,6.8,0.8,9.9,2.5l299.3,154.9c6,3.1,12.8,4.8,19.6,4.8s13.6-1.7,19.7-4.8l296.9-154.7
		c3.2-1.6,6.5-2.5,10-2.5c10.4,0,21.6,8.3,21.6,21.6v102.9c0,8.1-4.4,15.4-11.6,19.2L551.1,559.3
		C548.1,560.9,544.6,561.7,541.1,561.7L541.1,561.7z"/>
	<path class="st2" d="M541.1,813.2c-3.4,0-6.9-0.8-9.9-2.4L202.3,640.6c-7.2-3.7-11.7-11.1-11.7-19.2l0-103.1
		c0-13.4,11.2-21.6,21.6-21.6c3.4,0,6.8,0.8,9.9,2.5L521.5,654c6,3.1,12.8,4.8,19.6,4.8s13.6-1.7,19.7-4.8l296.9-154.7
		c3.2-1.6,6.5-2.5,10-2.5c10.4,0,21.6,8.3,21.6,21.6v102.9c0,8.1-4.4,15.4-11.6,19.2L551.1,810.7
		C548.1,812.3,544.6,813.1,541.1,813.2L541.1,813.2z"/>
	<g>
		<path class="st2" d="M196.2,834.8c-3.1,0-5.6-2.5-5.6-5.6v-75.6c0-3.4,2.9-5.6,5.6-5.6c0.9,0,1.7,0.2,2.5,0.6l158,81.7
			c0.4,0.2,1.6,0.8,1.2,2.6s-1.8,1.8-2.3,1.8L196.2,834.8L196.2,834.8z"/>
		<path class="st2" d="M725.5,834.8c-0.5,0-1.8,0-2.3-1.8s0.8-2.4,1.2-2.6l156.8-81.7c0.8-0.4,1.7-0.7,2.6-0.7
			c2.7,0,5.6,2.1,5.6,5.6v75.6c0,3.1-2.5,5.6-5.6,5.6H725.5L725.5,834.8z"/>
	</g>
</g>
</svg>
